<svg id="12a713ed-ffbf-4865-9d3c-382f974dd55c" data-name="Layer 1" xmlns="http://www.w3.org/2000/svg" viewBox="0 0 455.89417 279.15478"><title>web</title><line x1="206.89202" y1="188.23777" x2="218.11431" y2="179.86759" style="fill:none;stroke:#fff;stroke-linecap:round;stroke-linejoin:round;stroke-width:0px"/><line x1="14.47461" y1="194.52609" x2="6.45868" y2="200.50479" style="fill:none;stroke:#fff;stroke-linecap:round;stroke-linejoin:round;stroke-width:0px"/><line x1="257.1668" y1="9.77084" x2="261.17476" y2="6.78149" style="fill:none;stroke:#fff;stroke-linecap:round;stroke-linejoin:round;stroke-width:0px"/><path d="M2323.6667,189.57651l-8.25816,6.15937a28.03352,28.03352,0,0,0-6.70933,25.23855L2199.8561,263.04137a53.03309,53.03309,0,0,0-32.64083-27.98463l19.95461-91.10474a42.29315,42.29315,0,1,0-18.1226-77.32773l-4.038,3.01176a42.29351,42.29351,0,0,0-8.22183,55.34764l3.31018,4.43812a42.05954,42.05954,0,0,0,19.25669,12.82168L2159.399,233.35024a52.83361,52.83361,0,0,0-33.14575,6.1614L2114.949,247.943a52.85466,52.85466,0,0,0-15.58694,31.82582l-139.94349-5.45958a25.74413,25.74413,0,0,0-36.70756-20.21174l-7.94166,5.92331a25.7455,25.7455,0,0,0,33.86054,38.36834l1.20337-.89754a25.64541,25.64541,0,0,0,9.27544-15.189l139.93344,5.45977a53.0014,53.0014,0,1,0,103.70526-17.2616l108.841-42.06656A27.99713,27.99713,0,1,0,2323.6667,189.57651Z" transform="translate(-1908.09796 -59.67463)" style="fill:#fff"/><line x1="407.43172" y1="135.9709" x2="415.44765" y2="129.99219" style="fill:none;stroke:#fff;stroke-linecap:round;stroke-linejoin:round;stroke-width:0px"/></svg>